{
.appVersion = "3151";
.formatVersion = 3;
axes = (
{
name = Variation;
tag = VARI;
},
{
name = Distribution;
tag = DIST;
}
);
date = "2022-04-13 13:51:59 +0000";
familyName = "GD That Then This";
fontMaster = (
{
axesValues = (
0,
0
);
customParameters = (
{
name = "Master Icon Glyph Name";
value = A;
}
);
id = m01;
metricValues = (
{
over = 16;
pos = 800;
},
{
over = 16;
pos = 700;
},
{
over = 16;
pos = 500;
},
{
over = -16;
},
{
over = -16;
pos = -200;
},
{
over = -16;
}
);
name = That;
},
{
axesValues = (
100,
0
);
customParameters = (
{
name = "Master Icon Glyph Name";
value = A;
}
);
id = "2BAEE796-A8A2-4D91-B31E-11C9E1D2104C";
metricValues = (
{
over = 16;
pos = 800;
},
{
over = 16;
pos = 700;
},
{
over = 16;
pos = 500;
},
{
over = -16;
},
{
over = -16;
pos = -200;
},
{
over = -16;
}
);
name = This;
},
{
axesValues = (
0,
100
);
customParameters = (
{
name = "Master Icon Glyph Name";
value = A;
}
);
id = "69A8E9E3-476B-46EB-8A57-F9946389FE8B";
metricValues = (
{
over = 16;
pos = 800;
},
{
over = 16;
pos = 700;
},
{
over = 16;
pos = 500;
},
{
over = -16;
},
{
over = -16;
pos = -200;
},
{
over = -16;
}
);
name = "That Then This";
},
{
axesValues = (
100,
100
);
customParameters = (
{
name = "Master Icon Glyph Name";
value = A;
}
);
id = "A7160D91-CE36-4078-BB5A-1D71451BE1DC";
metricValues = (
{
over = 16;
pos = 800;
},
{
over = 16;
pos = 700;
},
{
over = 16;
pos = 500;
},
{
over = -16;
},
{
over = -16;
pos = -200;
},
{
over = -16;
}
);
name = "This Then That";
}
);
glyphs = (
{
glyphname = A;
lastChange = "2022-04-24 23:01:02 +0000";
layers = (
{
layerId = m01;
shapes = (
{
closed = 1;
nodes = (
(200,400,l),
(400,400,l),
(400,0,l),
(700,0,l),
(700,700,l),
(100,700,l),
(100,0,l),
(200,0,l)
);
},
{
attr = {
mask = 1;
};
closed = 1;
nodes = (
(200,500,l),
(400,500,l),
(400,600,l),
(200,600,l)
);
}
);
width = 800;
},
{
layerId = "2BAEE796-A8A2-4D91-B31E-11C9E1D2104C";
shapes = (
{
closed = 1;
nodes = (
(200,100,l),
(600,100,l),
(600,0,l),
(700,0,l),
(700,700,l),
(100,700,l),
(100,0,l),
(200,0,l)
);
},
{
attr = {
mask = 1;
};
closed = 1;
nodes = (
(400,200,l),
(600,200,l),
(600,600,l),
(400,600,l)
);
}
);
width = 800;
},
{
layerId = "69A8E9E3-476B-46EB-8A57-F9946389FE8B";
shapes = (
{
closed = 1;
nodes = (
(200,400,l),
(600,400,l),
(600,300,l),
(700,300,l),
(700,700,l),
(100,700,l),
(100,300,l),
(200,300,l)
);
},
{
attr = {
mask = 1;
};
closed = 1;
nodes = (
(200,500,l),
(600,500,l),
(600,600,l),
(200,600,l)
);
}
);
width = 800;
},
{
layerId = "A7160D91-CE36-4078-BB5A-1D71451BE1DC";
shapes = (
{
closed = 1;
nodes = (
(200,100,l),
(600,100,l),
(600,0,l),
(700,0,l),
(700,500,l),
(100,500,l),
(100,0,l),
(200,0,l)
);
},
{
attr = {
mask = 1;
};
closed = 1;
nodes = (
(200,200,l),
(600,200,l),
(600,400,l),
(200,400,l)
);
}
);
width = 800;
}
);
unicode = (65,97);
},
{
glyphname = B;
lastChange = "2022-04-24 23:01:02 +0000";
layers = (
{
layerId = m01;
shapes = (
{
closed = 1;
nodes = (
(500,0,l),
(500,100,l),
(700,100,l),
(700,400,l),
(600,400,l),
(600,500,l),
(700,500,l),
(700,600,l),
(500,600,l),
(500,700,l),
(100,700,l),
(100,0,l)
);
},
{
closed = 1;
nodes = (
(200,400,l),
(400,400,l),
(400,100,l),
(200,100,l)
);
},
{
closed = 1;
nodes = (
(200,600,l),
(400,600,l),
(400,500,l),
(200,500,l)
);
}
);
width = 800;
},
{
layerId = "2BAEE796-A8A2-4D91-B31E-11C9E1D2104C";
shapes = (
{
closed = 1;
nodes = (
(500,0,l),
(500,200,l),
(700,200,l),
(700,300,l),
(500,300,l),
(500,500,l),
(700,500,l),
(700,600,l),
(500,600,l),
(500,700,l),
(100,700,l),
(100,0,l)
);
},
{
closed = 1;
nodes = (
(300,200,l),
(400,200,l),
(400,100,l),
(300,100,l)
);
},
{
closed = 1;
nodes = (
(200,600,l),
(300,600,l),
(300,300,l),
(200,300,l)
);
}
);
width = 800;
},
{
layerId = "69A8E9E3-476B-46EB-8A57-F9946389FE8B";
shapes = (
{
closed = 1;
nodes = (
(500,0,l),
(500,100,l),
(700,100,l),
(700,200,l),
(600,200,l),
(600,300,l),
(700,300,l),
(700,500,l),
(500,500,l),
(500,600,l),
(100,600,l),
(100,0,l)
);
},
{
closed = 1;
nodes = (
(300,200,l),
(400,200,l),
(400,100,l),
(300,100,l)
);
},
{
closed = 1;
nodes = (
(200,500,l),
(300,500,l),
(300,300,l),
(200,300,l)
);
}
);
width = 800;
},
{
layerId = "A7160D91-CE36-4078-BB5A-1D71451BE1DC";
shapes = (
{
closed = 1;
nodes = (
(500,100,l),
(500,300,l),
(700,300,l),
(700,400,l),
(600,400,l),
(600,500,l),
(700,500,l),
(700,600,l),
(500,600,l),
(500,700,l),
(100,700,l),
(100,100,l)
);
},
{
closed = 1;
nodes = (
(200,300,l),
(300,300,l),
(300,200,l),
(200,200,l)
);
},
{
closed = 1;
nodes = (
(300,600,l),
(400,600,l),
(400,400,l),
(300,400,l)
);
}
);
width = 800;
}
);
unicode = (66,98);
},
{
glyphname = C;
lastChange = "2022-04-24 23:01:02 +0000";
layers = (
{
layerId = m01;
shapes = (
{
closed = 1;
nodes = (
(600,0,l),
(600,300,l),
(200,300,l),
(200,600,l),
(700,600,l),
(700,700,l),
(100,700,l),
(100,0,l)
);
}
);
width = 800;
},
{
layerId = "2BAEE796-A8A2-4D91-B31E-11C9E1D2104C";
shapes = (
{
closed = 1;
nodes = (
(700,0,l),
(700,200,l),
(200,200,l),
(200,300,l),
(600,300,l),
(600,700,l),
(100,700,l),
(100,0,l)
);
}
);
width = 800;
},
{
layerId = "69A8E9E3-476B-46EB-8A57-F9946389FE8B";
shapes = (
{
closed = 1;
nodes = (
(500,300,l),
(500,400,l),
(200,400,l),
(200,600,l),
(700,600,l),
(700,700,l),
(100,700,l),
(100,300,l)
);
}
);
width = 800;
},
{
layerId = "A7160D91-CE36-4078-BB5A-1D71451BE1DC";
shapes = (
{
closed = 1;
nodes = (
(600,0,l),
(600,100,l),
(200,100,l),
(200,200,l),
(700,200,l),
(700,300,l),
(100,300,l),
(100,0,l)
);
}
);
width = 800;
}
);
unicode = (67,99);
},
{
glyphname = D;
lastChange = "2022-04-24 23:01:02 +0000";
layers = (
{
layerId = m01;
shapes = (
{
closed = 1;
nodes = (
(100,0,l),
(500,0,l),
(500,100,l),
(700,100,l),
(700,600,l),
(500,600,l),
(500,700,l),
(100,700,l)
);
},
{
closed = 1;
nodes = (
(600,200,l),
(200,200,l),
(200,500,l),
(600,500,l)
);
}
);
width = 800;
},
{
layerId = "2BAEE796-A8A2-4D91-B31E-11C9E1D2104C";
shapes = (
{
closed = 1;
nodes = (
(100,0,l),
(300,0,l),
(300,200,l),
(700,200,l),
(700,500,l),
(300,500,l),
(300,700,l),
(100,700,l)
);
},
{
closed = 1;
nodes = (
(600,300,l),
(500,300,l),
(500,400,l),
(600,400,l)
);
}
);
width = 800;
},
{
layerId = "69A8E9E3-476B-46EB-8A57-F9946389FE8B";
shapes = (
{
closed = 1;
nodes = (
(100,0,l),
(300,0,l),
(300,100,l),
(700,100,l),
(700,500,l),
(300,500,l),
(300,600,l),
(100,600,l)
);
},
{
closed = 1;
nodes = (
(600,200,l),
(300,200,l),
(300,400,l),
(600,400,l)
);
}
);
width = 800;
},
{
layerId = "A7160D91-CE36-4078-BB5A-1D71451BE1DC";
shapes = (
{
closed = 1;
nodes = (
(100,100,l),
(600,100,l),
(600,200,l),
(700,200,l),
(700,600,l),
(300,600,l),
(300,700,l),
(100,700,l)
);
},
{
closed = 1;
nodes = (
(600,300,l),
(200,300,l),
(200,500,l),
(600,500,l)
);
}
);
width = 800;
}
);
unicode = (68,100);
},
{
glyphname = E;
lastChange = "2022-04-24 23:01:02 +0000";
layers = (
{
layerId = m01;
shapes = (
{
closed = 1;
nodes = (
(300,300,l),
(300,200,l),
(700,200,l),
(700,0,l),
(100,0,l),
(100,700,l),
(600,700,l),
(600,600,l),
(300,600,l),
(300,400,l),
(700,400,l),
(700,300,l)
);
}
);
width = 800;
},
{
layerId = "2BAEE796-A8A2-4D91-B31E-11C9E1D2104C";
shapes = (
{
closed = 1;
nodes = (
(200,300,l),
(200,100,l),
(600,100,l),
(600,0,l),
(100,0,l),
(100,700,l),
(700,700,l),
(700,600,l),
(200,600,l),
(200,500,l),
(500,500,l),
(500,300,l)
);
}
);
width = 800;
},
{
layerId = "69A8E9E3-476B-46EB-8A57-F9946389FE8B";
shapes = (
{
closed = 1;
nodes = (
(200,300,l),
(200,200,l),
(600,200,l),
(600,100,l),
(100,100,l),
(100,700,l),
(400,700,l),
(400,500,l),
(200,500,l),
(200,400,l),
(700,400,l),
(700,300,l)
);
}
);
width = 800;
},
{
layerId = "A7160D91-CE36-4078-BB5A-1D71451BE1DC";
shapes = (
{
closed = 1;
nodes = (
(500,200,l),
(500,100,l),
(600,100,l),
(600,0,l),
(100,0,l),
(100,600,l),
(400,600,l),
(400,400,l),
(300,400,l),
(300,300,l),
(700,300,l),
(700,200,l)
);
}
);
width = 800;
}
);
unicode = (69,101);
},
{
glyphname = F;
lastChange = "2022-04-24 23:01:02 +0000";
layers = (
{
layerId = m01;
shapes = (
{
closed = 1;
nodes = (
(100,0,l),
(500,0,l),
(500,400,l),
(600,400,l),
(600,500,l),
(500,500,l),
(500,600,l),
(700,600,l),
(700,700,l),
(100,700,l)
);
}
);
width = 800;
},
{
layerId = "2BAEE796-A8A2-4D91-B31E-11C9E1D2104C";
shapes = (
{
closed = 1;
nodes = (
(100,0,l),
(200,0,l),
(200,400,l),
(700,400,l),
(700,500,l),
(300,500,l),
(300,600,l),
(500,600,l),
(500,700,l),
(100,700,l)
);
}
);
width = 800;
},
{
layerId = "69A8E9E3-476B-46EB-8A57-F9946389FE8B";
shapes = (
{
closed = 1;
nodes = (
(100,0,l),
(200,0,l),
(200,100,l),
(500,100,l),
(500,300,l),
(400,300,l),
(400,400,l),
(700,400,l),
(700,500,l),
(100,500,l)
);
}
);
width = 800;
},
{
layerId = "A7160D91-CE36-4078-BB5A-1D71451BE1DC";
shapes = (
{
closed = 1;
nodes = (
(100,200,l),
(300,200,l),
(300,300,l),
(600,300,l),
(600,500,l),
(200,500,l),
(200,600,l),
(700,600,l),
(700,700,l),
(100,700,l)
);
}
);
width = 800;
}
);
unicode = (70,102);
},
{
glyphname = G;
lastChange = "2022-04-24 23:01:02 +0000";
layers = (
{
layerId = m01;
shapes = (
{
closed = 1;
nodes = (
(100,100,l),
(300,100,l),
(300,0,l),
(700,0,l),
(700,400,l),
(400,400,l),
(400,300,l),
(500,300,l),
(500,200,l),
(300,200,l),
(300,500,l),
(700,500,l),
(700,700,l),
(100,700,l)
);
}
);
width = 800;
},
{
layerId = "2BAEE796-A8A2-4D91-B31E-11C9E1D2104C";
shapes = (
{
closed = 1;
nodes = (
(100,100,l),
(200,100,l),
(200,0,l),
(600,0,l),
(600,500,l),
(300,500,l),
(300,300,l),
(400,300,l),
(400,200,l),
(200,200,l),
(200,600,l),
(700,600,l),
(700,700,l),
(100,700,l)
);
}
);
width = 800;
},
{
layerId = "69A8E9E3-476B-46EB-8A57-F9946389FE8B";
shapes = (
{
closed = 1;
nodes = (
(100,200,l),
(200,200,l),
(200,100,l),
(700,100,l),
(700,500,l),
(400,500,l),
(400,400,l),
(500,400,l),
(500,300,l),
(300,300,l),
(300,600,l),
(400,600,l),
(400,700,l),
(100,700,l)
);
}
);
width = 800;
},
{
layerId = "A7160D91-CE36-4078-BB5A-1D71451BE1DC";
shapes = (
{
closed = 1;
nodes = (
(100,100,l),
(200,100,l),
(200,0,l),
(700,0,l),
(700,400,l),
(400,400,l),
(400,200,l),
(600,200,l),
(600,100,l),
(300,100,l),
(300,500,l),
(400,500,l),
(400,600,l),
(100,600,l)
);
}
);
width = 800;
}
);
unicode = (71,103);
},
{
glyphname = H;
lastChange = "2022-04-24 23:01:02 +0000";
layers = (
{
layerId = m01;
shapes = (
{
closed = 1;
nodes = (
(100,0,l),
(400,0,l),
(400,200,l),
(500,200,l),
(500,100,l),
(700,100,l),
(700,700,l),
(500,700,l),
(500,500,l),
(300,500,l),
(300,700,l),
(100,700,l)
);
}
);
width = 800;
},
{
layerId = "2BAEE796-A8A2-4D91-B31E-11C9E1D2104C";
shapes = (
{
closed = 1;
nodes = (
(100,0,l),
(200,0,l),
(200,400,l),
(500,400,l),
(500,0,l),
(700,0,l),
(700,600,l),
(500,600,l),
(500,500,l),
(300,500,l),
(300,700,l),
(100,700,l)
);
}
);
width = 800;
},
{
layerId = "69A8E9E3-476B-46EB-8A57-F9946389FE8B";
shapes = (
{
closed = 1;
nodes = (
(100,0,l),
(200,0,l),
(200,300,l),
(500,300,l),
(500,0,l),
(700,0,l),
(700,500,l),
(600,500,l),
(600,400,l),
(300,400,l),
(300,500,l),
(100,500,l)
);
}
);
width = 800;
},
{
layerId = "A7160D91-CE36-4078-BB5A-1D71451BE1DC";
shapes = (
{
closed = 1;
nodes = (
(100,200,l),
(200,200,l),
(200,300,l),
(500,300,l),
(500,200,l),
(700,200,l),
(700,700,l),
(600,700,l),
(600,400,l),
(300,400,l),
(300,700,l),
(100,700,l)
);
}
);
width = 800;
}
);
unicode = (72,104);
},
{
glyphname = I;
lastChange = "2022-04-24 23:01:02 +0000";
layers = (
{
layerId = m01;
shapes = (
{
closed = 1;
nodes = (
(100,600,l),
(400,600,l),
(400,200,l),
(100,200,l),
(100,0,l),
(700,0,l),
(700,100,l),
(600,100,l),
(600,600,l),
(700,600,l),
(700,700,l),
(100,700,l)
);
}
);
width = 800;
},
{
layerId = "2BAEE796-A8A2-4D91-B31E-11C9E1D2104C";
shapes = (
{
closed = 1;
nodes = (
(100,600,l),
(200,600,l),
(200,100,l),
(100,100,l),
(100,0,l),
(700,0,l),
(700,100,l),
(300,100,l),
(300,400,l),
(700,400,l),
(700,700,l),
(100,700,l)
);
}
);
width = 800;
},
{
layerId = "69A8E9E3-476B-46EB-8A57-F9946389FE8B";
shapes = (
{
closed = 1;
nodes = (
(100,300,l),
(200,300,l),
(200,100,l),
(100,100,l),
(100,0,l),
(700,0,l),
(700,100,l),
(600,100,l),
(600,400,l),
(700,400,l),
(700,500,l),
(100,500,l)
);
}
);
width = 800;
},
{
layerId = "A7160D91-CE36-4078-BB5A-1D71451BE1DC";
shapes = (
{
closed = 1;
nodes = (
(100,500,l),
(400,500,l),
(400,300,l),
(100,300,l),
(100,200,l),
(700,200,l),
(700,300,l),
(600,300,l),
(600,600,l),
(700,600,l),
(700,700,l),
(100,700,l)
);
}
);
width = 800;
}
);
unicode = (73,105);
},
{
glyphname = J;
lastChange = "2022-04-24 23:01:02 +0000";
layers = (
{
layerId = m01;
shapes = (
{
closed = 1;
nodes = (
(100,500,l),
(300,500,l),
(300,200,l),
(500,200,l),
(500,600,l),
(400,600,l),
(400,700,l),
(700,700,l),
(700,0,l),
(100,0,l)
);
}
);
width = 800;
},
{
layerId = "2BAEE796-A8A2-4D91-B31E-11C9E1D2104C";
shapes = (
{
closed = 1;
nodes = (
(100,200,l),
(300,200,l),
(300,100,l),
(400,100,l),
(400,600,l),
(100,600,l),
(100,700,l),
(700,700,l),
(700,0,l),
(100,0,l)
);
}
);
width = 800;
},
{
layerId = "69A8E9E3-476B-46EB-8A57-F9946389FE8B";
shapes = (
{
closed = 1;
nodes = (
(100,400,l),
(300,400,l),
(300,300,l),
(600,300,l),
(600,600,l),
(500,600,l),
(500,700,l),
(700,700,l),
(700,200,l),
(100,200,l)
);
}
);
width = 800;
},
{
layerId = "A7160D91-CE36-4078-BB5A-1D71451BE1DC";
shapes = (
{
closed = 1;
nodes = (
(100,200,l),
(400,200,l),
(400,100,l),
(600,100,l),
(600,400,l),
(300,400,l),
(300,500,l),
(700,500,l),
(700,0,l),
(100,0,l)
);
}
);
width = 800;
}
);
unicode = (74,106);
},
{
glyphname = K;
lastChange = "2022-04-24 23:01:02 +0000";
layers = (
{
layerId = m01;
shapes = (
{
closed = 1;
nodes = (
(100,0,l),
(300,0,l),
(300,300,l),
(500,300,l),
(500,0,l),
(700,0,l),
(700,400,l),
(600,400,l),
(600,500,l),
(700,500,l),
(700,700,l),
(500,700,l),
(500,600,l),
(400,600,l),
(400,700,l),
(100,700,l)
);
}
);
width = 800;
},
{
layerId = "2BAEE796-A8A2-4D91-B31E-11C9E1D2104C";
shapes = (
{
closed = 1;
nodes = (
(100,0,l),
(300,0,l),
(300,100,l),
(500,100,l),
(500,0,l),
(700,0,l),
(700,200,l),
(200,200,l),
(200,500,l),
(700,500,l),
(700,700,l),
(500,700,l),
(500,600,l),
(300,600,l),
(300,700,l),
(100,700,l)
);
}
);
width = 800;
},
{
layerId = "69A8E9E3-476B-46EB-8A57-F9946389FE8B";
shapes = (
{
closed = 1;
nodes = (
(100,0,l),
(300,0,l),
(300,100,l),
(500,100,l),
(500,0,l),
(700,0,l),
(700,200,l),
(600,200,l),
(600,300,l),
(700,300,l),
(700,500,l),
(500,500,l),
(500,400,l),
(200,400,l),
(200,500,l),
(100,500,l)
);
}
);
width = 800;
},
{
layerId = "A7160D91-CE36-4078-BB5A-1D71451BE1DC";
shapes = (
{
closed = 1;
nodes = (
(100,200,l),
(300,200,l),
(300,500,l),
(500,500,l),
(500,200,l),
(700,200,l),
(700,400,l),
(600,400,l),
(600,500,l),
(700,500,l),
(700,700,l),
(500,700,l),
(500,600,l),
(200,600,l),
(200,700,l),
(100,700,l)
);
}
);
width = 800;
}
);
unicode = (75,107);
},
{
glyphname = L;
lastChange = "2022-04-24 23:01:02 +0000";
layers = (
{
layerId = m01;
shapes = (
{
closed = 1;
nodes = (
(100,0,l),
(700,0,l),
(700,100,l),
(500,100,l),
(500,700,l),
(100,700,l)
);
}
);
width = 800;
},
{
layerId = "2BAEE796-A8A2-4D91-B31E-11C9E1D2104C";
shapes = (
{
closed = 1;
nodes = (
(100,0,l),
(700,0,l),
(700,300,l),
(300,300,l),
(300,700,l),
(100,700,l)
);
}
);
width = 800;
},
{
layerId = "69A8E9E3-476B-46EB-8A57-F9946389FE8B";
shapes = (
{
closed = 1;
nodes = (
(100,300,l),
(700,300,l),
(700,400,l),
(300,400,l),
(300,700,l),
(100,700,l)
);
}
);
width = 800;
},
{
layerId = "A7160D91-CE36-4078-BB5A-1D71451BE1DC";
shapes = (
{
closed = 1;
nodes = (
(100,0,l),
(700,0,l),
(700,100,l),
(500,100,l),
(500,400,l),
(100,400,l)
);
}
);
width = 800;
}
);
unicode = (76,108);
},
{
glyphname = M;
lastChange = "2022-04-24 23:01:02 +0000";
layers = (
{
layerId = m01;
shapes = (
{
closed = 1;
nodes = (
(100,700,l),
(300,700,l),
(300,300,l),
(400,300,l),
(400,700,l),
(700,700,l),
(700,0,l),
(600,0,l),
(600,300,l),
(500,300,l),
(500,100,l),
(300,100,l),
(300,200,l),
(200,200,l),
(200,0,l),
(100,0,l)
);
}
);
width = 800;
},
{
layerId = "2BAEE796-A8A2-4D91-B31E-11C9E1D2104C";
shapes = (
{
closed = 1;
nodes = (
(100,700,l),
(300,700,l),
(300,500,l),
(500,500,l),
(500,700,l),
(700,700,l),
(700,0,l),
(600,0,l),
(600,300,l),
(500,300,l),
(500,200,l),
(300,200,l),
(300,300,l),
(200,300,l),
(200,0,l),
(100,0,l)
);
}
);
width = 800;
},
{
layerId = "69A8E9E3-476B-46EB-8A57-F9946389FE8B";
shapes = (
{
closed = 1;
nodes = (
(100,500,l),
(400,500,l),
(400,300,l),
(500,300,l),
(500,600,l),
(700,600,l),
(700,0,l),
(600,0,l),
(600,200,l),
(500,200,l),
(500,0,l),
(300,0,l),
(300,300,l),
(200,300,l),
(200,100,l),
(100,100,l)
);
}
);
width = 800;
},
{
layerId = "A7160D91-CE36-4078-BB5A-1D71451BE1DC";
shapes = (
{
closed = 1;
nodes = (
(100,700,l),
(400,700,l),
(400,500,l),
(500,500,l),
(500,600,l),
(700,600,l),
(700,100,l),
(600,100,l),
(600,400,l),
(500,400,l),
(500,100,l),
(300,100,l),
(300,300,l),
(200,300,l),
(200,200,l),
(100,200,l)
);
}
);
width = 800;
}
);
unicode = (77,109);
},
{
glyphname = N;
lastChange = "2022-04-24 23:01:02 +0000";
layers = (
{
layerId = m01;
shapes = (
{
closed = 1;
nodes = (
(200,400,l),
(400,400,l),
(400,0,l),
(700,0,l),
(700,700,l),
(500,700,l),
(500,500,l),
(400,500,l),
(400,700,l),
(100,700,l),
(100,0,l),
(200,0,l)
);
}
);
width = 800;
},
{
layerId = "2BAEE796-A8A2-4D91-B31E-11C9E1D2104C";
shapes = (
{
closed = 1;
nodes = (
(200,200,l),
(500,200,l),
(500,0,l),
(700,0,l),
(700,700,l),
(600,700,l),
(600,300,l),
(500,300,l),
(500,500,l),
(100,500,l),
(100,0,l),
(200,0,l)
);
}
);
width = 800;
},
{
layerId = "69A8E9E3-476B-46EB-8A57-F9946389FE8B";
shapes = (
{
closed = 1;
nodes = (
(200,400,l),
(300,400,l),
(300,200,l),
(700,200,l),
(700,700,l),
(600,700,l),
(600,300,l),
(500,300,l),
(500,600,l),
(100,600,l),
(100,100,l),
(200,100,l)
);
}
);
width = 800;
},
{
layerId = "A7160D91-CE36-4078-BB5A-1D71451BE1DC";
shapes = (
{
closed = 1;
nodes = (
(200,300,l),
(300,300,l),
(300,0,l),
(700,0,l),
(700,600,l),
(600,600,l),
(600,100,l),
(500,100,l),
(500,400,l),
(100,400,l),
(100,0,l),
(200,0,l)
);
}
);
width = 800;
}
);
unicode = (78,110);
},
{
glyphname = O;
lastChange = "2022-04-24 23:01:02 +0000";
layers = (
{
layerId = m01;
shapes = (
{
closed = 1;
nodes = (
(100,0,l),
(700,0,l),
(700,700,l),
(100,700,l)
);
},
{
attr = {
mask = 1;
};
closed = 1;
nodes = (
(200,300,l),
(500,300,l),
(500,600,l),
(200,600,l)
);
}
);
width = 800;
},
{
layerId = "2BAEE796-A8A2-4D91-B31E-11C9E1D2104C";
shapes = (
{
closed = 1;
nodes = (
(100,0,l),
(700,0,l),
(700,700,l),
(100,700,l)
);
},
{
attr = {
mask = 1;
};
closed = 1;
nodes = (
(300,100,l),
(600,100,l),
(600,600,l),
(300,600,l)
);
}
);
width = 800;
},
{
layerId = "69A8E9E3-476B-46EB-8A57-F9946389FE8B";
shapes = (
{
closed = 1;
nodes = (
(100,300,l),
(700,300,l),
(700,700,l),
(100,700,l)
);
},
{
attr = {
mask = 1;
};
closed = 1;
nodes = (
(200,400,l),
(600,400,l),
(600,500,l),
(200,500,l)
);
}
);
width = 800;
},
{
layerId = "A7160D91-CE36-4078-BB5A-1D71451BE1DC";
shapes = (
{
closed = 1;
nodes = (
(100,0,l),
(700,0,l),
(700,400,l),
(100,400,l)
);
},
{
attr = {
mask = 1;
};
closed = 1;
nodes = (
(200,200,l),
(400,200,l),
(400,300,l),
(200,300,l)
);
}
);
width = 800;
}
);
unicode = (79,111);
},
{
glyphname = P;
lastChange = "2022-04-24 23:01:02 +0000";
layers = (
{
layerId = m01;
shapes = (
{
closed = 1;
nodes = (
(100,0,l),
(200,0,l),
(200,300,l),
(700,300,l),
(700,700,l),
(100,700,l)
);
},
{
closed = 1;
nodes = (
(400,400,l),
(300,400,l),
(300,600,l),
(400,600,l)
);
}
);
width = 800;
},
{
layerId = "2BAEE796-A8A2-4D91-B31E-11C9E1D2104C";
shapes = (
{
closed = 1;
nodes = (
(100,0,l),
(500,0,l),
(500,300,l),
(700,300,l),
(700,700,l),
(100,700,l)
);
},
{
closed = 1;
nodes = (
(400,300,l),
(200,300,l),
(200,600,l),
(400,600,l)
);
}
);
width = 800;
},
{
layerId = "69A8E9E3-476B-46EB-8A57-F9946389FE8B";
shapes = (
{
closed = 1;
nodes = (
(100,0,l),
(300,0,l),
(300,200,l),
(700,200,l),
(700,500,l),
(100,500,l)
);
},
{
closed = 1;
nodes = (
(500,300,l),
(200,300,l),
(200,400,l),
(500,400,l)
);
}
);
width = 800;
},
{
layerId = "A7160D91-CE36-4078-BB5A-1D71451BE1DC";
shapes = (
{
closed = 1;
nodes = (
(100,200,l),
(200,200,l),
(200,400,l),
(700,400,l),
(700,700,l),
(100,700,l)
);
},
{
closed = 1;
nodes = (
(600,500,l),
(300,500,l),
(300,600,l),
(600,600,l)
);
}
);
width = 800;
}
);
unicode = (80,112);
},
{
glyphname = Q;
lastChange = "2022-04-24 23:01:02 +0000";
layers = (
{
layerId = m01;
shapes = (
{
closed = 1;
nodes = (
(100,0,l),
(400,0,l),
(400,100,l),
(500,100,l),
(500,0,l),
(700,0,l),
(700,300,l),
(500,300,l),
(500,700,l),
(100,700,l)
);
},
{
attr = {
mask = 1;
};
closed = 1;
nodes = (
(200,300,l),
(300,300,l),
(300,500,l),
(200,500,l)
);
}
);
width = 800;
},
{
layerId = "2BAEE796-A8A2-4D91-B31E-11C9E1D2104C";
shapes = (
{
closed = 1;
nodes = (
(100,0,l),
(500,0,l),
(500,100,l),
(600,100,l),
(600,0,l),
(700,0,l),
(700,200,l),
(600,200,l),
(600,700,l),
(100,700,l)
);
},
{
attr = {
mask = 1;
};
closed = 1;
nodes = (
(200,400,l),
(500,400,l),
(500,600,l),
(200,600,l)
);
}
);
width = 800;
},
{
layerId = "69A8E9E3-476B-46EB-8A57-F9946389FE8B";
shapes = (
{
closed = 1;
nodes = (
(100,200,l),
(500,200,l),
(500,300,l),
(600,300,l),
(600,200,l),
(700,200,l),
(700,400,l),
(600,400,l),
(600,700,l),
(100,700,l)
);
},
{
attr = {
mask = 1;
};
closed = 1;
nodes = (
(200,300,l),
(300,300,l),
(300,600,l),
(200,600,l)
);
}
);
width = 800;
},
{
layerId = "A7160D91-CE36-4078-BB5A-1D71451BE1DC";
shapes = (
{
closed = 1;
nodes = (
(100,0,l),
(500,0,l),
(500,200,l),
(600,200,l),
(600,0,l),
(700,0,l),
(700,300,l),
(600,300,l),
(600,500,l),
(100,500,l)
);
},
{
attr = {
mask = 1;
};
closed = 1;
nodes = (
(200,100,l),
(400,100,l),
(400,400,l),
(200,400,l)
);
}
);
width = 800;
}
);
unicode = (81,113);
},
{
glyphname = R;
lastChange = "2022-04-24 23:01:02 +0000";
layers = (
{
layerId = m01;
shapes = (
{
closed = 1;
nodes = (
(700,700,l),
(700,400,l),
(600,400,l),
(600,100,l),
(700,100,l),
(700,0,l),
(400,0,l),
(400,300,l),
(300,300,l),
(300,0,l),
(100,0,l),
(100,700,l)
);
},
{
closed = 1;
nodes = (
(200,500,l),
(600,500,l),
(600,600,l),
(200,600,l)
);
}
);
width = 800;
},
{
layerId = "2BAEE796-A8A2-4D91-B31E-11C9E1D2104C";
shapes = (
{
closed = 1;
nodes = (
(700,700,l),
(700,400,l),
(500,400,l),
(500,100,l),
(700,100,l),
(700,0,l),
(400,0,l),
(400,100,l),
(300,100,l),
(300,0,l),
(100,0,l),
(100,700,l)
);
},
{
closed = 1;
nodes = (
(200,400,l),
(400,400,l),
(400,500,l),
(200,500,l)
);
}
);
width = 800;
},
{
layerId = "69A8E9E3-476B-46EB-8A57-F9946389FE8B";
shapes = (
{
closed = 1;
nodes = (
(700,500,l),
(700,200,l),
(500,200,l),
(500,100,l),
(700,100,l),
(700,0,l),
(400,0,l),
(400,200,l),
(200,200,l),
(200,0,l),
(100,0,l),
(100,500,l)
);
},
{
closed = 1;
nodes = (
(200,300,l),
(600,300,l),
(600,400,l),
(200,400,l)
);
}
);
width = 800;
},
{
layerId = "A7160D91-CE36-4078-BB5A-1D71451BE1DC";
shapes = (
{
closed = 1;
nodes = (
(700,700,l),
(700,400,l),
(600,400,l),
(600,300,l),
(700,300,l),
(700,200,l),
(300,200,l),
(300,400,l),
(200,400,l),
(200,200,l),
(100,200,l),
(100,700,l)
);
},
{
closed = 1;
nodes = (
(400,500,l),
(600,500,l),
(600,600,l),
(400,600,l)
);
}
);
width = 800;
}
);
unicode = (82,114);
},
{
glyphname = S;
lastChange = "2022-04-24 23:01:02 +0000";
layers = (
{
layerId = m01;
shapes = (
{
closed = 1;
nodes = (
(600,700,l),
(600,400,l),
(500,400,l),
(500,500,l),
(300,500,l),
(300,300,l),
(700,300,l),
(700,0,l),
(200,0,l),
(200,100,l),
(500,100,l),
(500,200,l),
(100,200,l),
(100,700,l)
);
}
);
width = 800;
},
{
layerId = "2BAEE796-A8A2-4D91-B31E-11C9E1D2104C";
shapes = (
{
closed = 1;
nodes = (
(700,700,l),
(700,500,l),
(500,500,l),
(500,600,l),
(200,600,l),
(200,400,l),
(600,400,l),
(600,0,l),
(100,0,l),
(100,100,l),
(500,100,l),
(500,300,l),
(100,300,l),
(100,700,l)
);
}
);
width = 800;
},
{
layerId = "69A8E9E3-476B-46EB-8A57-F9946389FE8B";
shapes = (
{
closed = 1;
nodes = (
(700,700,l),
(700,500,l),
(600,500,l),
(600,600,l),
(200,600,l),
(200,500,l),
(500,500,l),
(500,200,l),
(100,200,l),
(100,300,l),
(400,300,l),
(400,400,l),
(100,400,l),
(100,700,l)
);
}
);
width = 800;
},
{
layerId = "A7160D91-CE36-4078-BB5A-1D71451BE1DC";
shapes = (
{
closed = 1;
nodes = (
(700,500,l),
(700,300,l),
(600,300,l),
(600,400,l),
(400,400,l),
(400,300,l),
(500,300,l),
(500,0,l),
(100,0,l),
(100,100,l),
(200,100,l),
(200,200,l),
(100,200,l),
(100,500,l)
);
}
);
width = 800;
}
);
unicode = (83,115);
},
{
glyphname = T;
lastChange = "2022-04-24 23:01:02 +0000";
layers = (
{
layerId = m01;
shapes = (
{
closed = 1;
nodes = (
(100,400,l),
(300,400,l),
(300,0,l),
(500,0,l),
(500,600,l),
(700,600,l),
(700,700,l),
(100,700,l)
);
}
);
width = 800;
},
{
layerId = "2BAEE796-A8A2-4D91-B31E-11C9E1D2104C";
shapes = (
{
closed = 1;
nodes = (
(100,600,l),
(300,600,l),
(300,0,l),
(600,0,l),
(600,200,l),
(700,200,l),
(700,700,l),
(100,700,l)
);
}
);
width = 800;
},
{
layerId = "69A8E9E3-476B-46EB-8A57-F9946389FE8B";
shapes = (
{
closed = 1;
nodes = (
(100,400,l),
(300,400,l),
(300,0,l),
(400,0,l),
(400,300,l),
(700,300,l),
(700,500,l),
(100,500,l)
);
}
);
width = 800;
},
{
layerId = "A7160D91-CE36-4078-BB5A-1D71451BE1DC";
shapes = (
{
closed = 1;
nodes = (
(100,400,l),
(300,400,l),
(300,200,l),
(400,200,l),
(400,600,l),
(700,600,l),
(700,700,l),
(100,700,l)
);
}
);
width = 800;
}
);
unicode = (84,116);
},
{
glyphname = U;
lastChange = "2022-04-24 23:01:02 +0000";
layers = (
{
layerId = m01;
shapes = (
{
closed = 1;
nodes = (
(100,0,l),
(700,0,l),
(700,500,l),
(500,500,l),
(500,200,l),
(300,200,l),
(300,700,l),
(100,700,l)
);
}
);
width = 800;
},
{
layerId = "2BAEE796-A8A2-4D91-B31E-11C9E1D2104C";
shapes = (
{
closed = 1;
nodes = (
(100,0,l),
(700,0,l),
(700,700,l),
(500,700,l),
(500,300,l),
(200,300,l),
(200,600,l),
(100,600,l)
);
}
);
width = 800;
},
{
layerId = "69A8E9E3-476B-46EB-8A57-F9946389FE8B";
shapes = (
{
closed = 1;
nodes = (
(100,300,l),
(700,300,l),
(700,700,l),
(500,700,l),
(500,500,l),
(400,500,l),
(400,600,l),
(100,600,l)
);
}
);
width = 800;
},
{
layerId = "A7160D91-CE36-4078-BB5A-1D71451BE1DC";
shapes = (
{
closed = 1;
nodes = (
(100,0,l),
(700,0,l),
(700,400,l),
(500,400,l),
(500,200,l),
(200,200,l),
(200,500,l),
(100,500,l)
);
}
);
width = 800;
}
);
unicode = (85,117);
},
{
glyphname = V;
lastChange = "2022-04-24 23:01:02 +0000";
layers = (
{
layerId = m01;
shapes = (
{
closed = 1;
nodes = (
(100,200,l),
(200,200,l),
(200,0,l),
(500,0,l),
(500,200,l),
(700,200,l),
(700,700,l),
(500,700,l),
(500,500,l),
(400,500,l),
(400,700,l),
(100,700,l)
);
}
);
width = 800;
},
{
layerId = "2BAEE796-A8A2-4D91-B31E-11C9E1D2104C";
shapes = (
{
closed = 1;
nodes = (
(100,100,l),
(200,100,l),
(200,0,l),
(600,0,l),
(600,100,l),
(700,100,l),
(700,700,l),
(500,700,l),
(500,200,l),
(200,200,l),
(200,700,l),
(100,700,l)
);
}
);
width = 800;
},
{
layerId = "69A8E9E3-476B-46EB-8A57-F9946389FE8B";
shapes = (
{
closed = 1;
nodes = (
(100,100,l),
(400,100,l),
(400,0,l),
(600,0,l),
(600,100,l),
(700,100,l),
(700,500,l),
(500,500,l),
(500,200,l),
(400,200,l),
(400,500,l),
(100,500,l)
);
}
);
width = 800;
},
{
layerId = "A7160D91-CE36-4078-BB5A-1D71451BE1DC";
shapes = (
{
closed = 1;
nodes = (
(100,300,l),
(300,300,l),
(300,200,l),
(500,200,l),
(500,300,l),
(700,300,l),
(700,700,l),
(600,700,l),
(600,400,l),
(200,400,l),
(200,700,l),
(100,700,l)
);
}
);
width = 800;
}
);
unicode = (86,118);
},
{
glyphname = W;
lastChange = "2022-04-24 23:01:02 +0000";
layers = (
{
layerId = m01;
shapes = (
{
closed = 1;
nodes = (
(100,200,l),
(200,200,l),
(200,0,l),
(300,0,l),
(300,300,l),
(400,300,l),
(400,0,l),
(600,0,l),
(600,100,l),
(700,100,l),
(700,700,l),
(600,700,l),
(600,500,l),
(500,500,l),
(500,700,l),
(400,700,l),
(400,600,l),
(200,600,l),
(200,700,l),
(100,700,l)
);
}
);
width = 800;
},
{
layerId = "2BAEE796-A8A2-4D91-B31E-11C9E1D2104C";
shapes = (
{
closed = 1;
nodes = (
(100,300,l),
(200,300,l),
(200,0,l),
(400,0,l),
(400,200,l),
(500,200,l),
(500,0,l),
(600,0,l),
(600,200,l),
(700,200,l),
(700,700,l),
(600,700,l),
(600,300,l),
(500,300,l),
(500,500,l),
(300,500,l),
(300,400,l),
(200,400,l),
(200,700,l),
(100,700,l)
);
}
);
width = 800;
},
{
layerId = "69A8E9E3-476B-46EB-8A57-F9946389FE8B";
shapes = (
{
closed = 1;
nodes = (
(100,500,l),
(200,500,l),
(200,300,l),
(400,300,l),
(400,400,l),
(500,400,l),
(500,200,l),
(600,200,l),
(600,400,l),
(700,400,l),
(700,700,l),
(600,700,l),
(600,500,l),
(400,500,l),
(400,700,l),
(300,700,l),
(300,600,l),
(200,600,l),
(200,700,l),
(100,700,l)
);
}
);
width = 800;
},
{
layerId = "A7160D91-CE36-4078-BB5A-1D71451BE1DC";
shapes = (
{
closed = 1;
nodes = (
(100,200,l),
(200,200,l),
(200,100,l),
(300,100,l),
(300,200,l),
(500,200,l),
(500,0,l),
(600,0,l),
(600,200,l),
(700,200,l),
(700,500,l),
(600,500,l),
(600,300,l),
(500,300,l),
(500,400,l),
(300,400,l),
(300,300,l),
(200,300,l),
(200,500,l),
(100,500,l)
);
}
);
width = 800;
}
);
unicode = (87,119);
},
{
glyphname = X;
lastChange = "2022-04-24 23:01:02 +0000";
layers = (
{
layerId = m01;
shapes = (
{
closed = 1;
nodes = (
(100,600,l),
(200,600,l),
(200,500,l),
(300,500,l),
(300,300,l),
(200,300,l),
(200,100,l),
(100,100,l),
(100,0,l),
(400,0,l),
(400,200,l),
(500,200,l),
(500,0,l),
(700,0,l),
(700,200,l),
(600,200,l),
(600,300,l),
(700,300,l),
(700,700,l),
(600,700,l),
(600,600,l),
(300,600,l),
(300,700,l),
(100,700,l)
);
}
);
width = 800;
},
{
layerId = "2BAEE796-A8A2-4D91-B31E-11C9E1D2104C";
shapes = (
{
closed = 1;
nodes = (
(100,600,l),
(200,600,l),
(200,400,l),
(400,400,l),
(400,300,l),
(200,300,l),
(200,100,l),
(100,100,l),
(100,0,l),
(300,0,l),
(300,200,l),
(400,200,l),
(400,0,l),
(700,0,l),
(700,100,l),
(500,100,l),
(500,300,l),
(700,300,l),
(700,700,l),
(600,700,l),
(600,500,l),
(300,500,l),
(300,700,l),
(100,700,l)
);
}
);
width = 800;
},
{
layerId = "69A8E9E3-476B-46EB-8A57-F9946389FE8B";
shapes = (
{
closed = 1;
nodes = (
(100,400,l),
(200,400,l),
(200,300,l),
(300,300,l),
(300,200,l),
(200,200,l),
(200,100,l),
(100,100,l),
(100,0,l),
(300,0,l),
(300,100,l),
(400,100,l),
(400,0,l),
(700,0,l),
(700,100,l),
(600,100,l),
(600,200,l),
(700,200,l),
(700,500,l),
(600,500,l),
(600,400,l),
(300,400,l),
(300,500,l),
(100,500,l)
);
}
);
width = 800;
},
{
layerId = "A7160D91-CE36-4078-BB5A-1D71451BE1DC";
shapes = (
{
closed = 1;
nodes = (
(100,600,l),
(200,600,l),
(200,500,l),
(300,500,l),
(300,400,l),
(200,400,l),
(200,300,l),
(100,300,l),
(100,200,l),
(300,200,l),
(300,300,l),
(400,300,l),
(400,200,l),
(700,200,l),
(700,300,l),
(500,300,l),
(500,400,l),
(700,400,l),
(700,700,l),
(600,700,l),
(600,500,l),
(400,500,l),
(400,700,l),
(100,700,l)
);
}
);
width = 800;
}
);
unicode = (88,120);
},
{
glyphname = Y;
lastChange = "2022-04-24 23:01:02 +0000";
layers = (
{
layerId = m01;
shapes = (
{
closed = 1;
nodes = (
(100,500,l),
(300,500,l),
(300,0,l),
(400,0,l),
(400,300,l),
(700,300,l),
(700,700,l),
(500,700,l),
(500,500,l),
(400,500,l),
(400,700,l),
(100,700,l)
);
}
);
width = 800;
},
{
layerId = "2BAEE796-A8A2-4D91-B31E-11C9E1D2104C";
shapes = (
{
closed = 1;
nodes = (
(100,200,l),
(300,200,l),
(300,0,l),
(400,0,l),
(400,400,l),
(700,400,l),
(700,700,l),
(600,700,l),
(600,500,l),
(200,500,l),
(200,700,l),
(100,700,l)
);
}
);
width = 800;
},
{
layerId = "69A8E9E3-476B-46EB-8A57-F9946389FE8B";
shapes = (
{
closed = 1;
nodes = (
(100,400,l),
(300,400,l),
(300,100,l),
(400,100,l),
(400,400,l),
(700,400,l),
(700,700,l),
(400,700,l),
(400,500,l),
(300,500,l),
(300,700,l),
(100,700,l)
);
}
);
width = 800;
},
{
layerId = "A7160D91-CE36-4078-BB5A-1D71451BE1DC";
shapes = (
{
closed = 1;
nodes = (
(100,400,l),
(300,400,l),
(300,0,l),
(400,0,l),
(400,200,l),
(700,200,l),
(700,600,l),
(400,600,l),
(400,500,l),
(300,500,l),
(300,600,l),
(100,600,l)
);
}
);
width = 800;
}
);
unicode = (89,121);
},
{
glyphname = Z;
lastChange = "2022-04-24 23:01:02 +0000";
layers = (
{
layerId = m01;
shapes = (
{
closed = 1;
nodes = (
(100,500,l),
(500,500,l),
(500,400,l),
(300,400,l),
(300,200,l),
(100,200,l),
(100,0,l),
(700,0,l),
(700,100,l),
(500,100,l),
(500,300,l),
(700,300,l),
(700,700,l),
(100,700,l)
);
}
);
width = 800;
},
{
layerId = "2BAEE796-A8A2-4D91-B31E-11C9E1D2104C";
shapes = (
{
closed = 1;
nodes = (
(100,600,l),
(500,600,l),
(500,500,l),
(200,500,l),
(200,200,l),
(100,200,l),
(100,0,l),
(700,0,l),
(700,100,l),
(300,100,l),
(300,300,l),
(600,300,l),
(600,700,l),
(100,700,l)
);
}
);
width = 800;
},
{
layerId = "69A8E9E3-476B-46EB-8A57-F9946389FE8B";
shapes = (
{
closed = 1;
nodes = (
(100,400,l),
(300,400,l),
(300,300,l),
(200,300,l),
(200,100,l),
(100,100,l),
(100,0,l),
(700,0,l),
(700,100,l),
(300,100,l),
(300,200,l),
(700,200,l),
(700,500,l),
(100,500,l)
);
}
);
width = 800;
},
{
layerId = "A7160D91-CE36-4078-BB5A-1D71451BE1DC";
shapes = (
{
closed = 1;
nodes = (
(100,600,l),
(600,600,l),
(600,500,l),
(200,500,l),
(200,300,l),
(100,300,l),
(100,200,l),
(700,200,l),
(700,300,l),
(300,300,l),
(300,400,l),
(700,400,l),
(700,700,l),
(100,700,l)
);
}
);
width = 800;
}
);
unicode = (90,122);
},
{
glyphname = zero;
lastChange = "2022-04-24 23:01:02 +0000";
layers = (
{
layerId = m01;
shapes = (
{
closed = 1;
nodes = (
(700,0,l),
(700,700,l),
(100,700,l),
(100,0,l)
);
},
{
closed = 1;
nodes = (
(500,400,l),
(600,400,l),
(600,100,l),
(500,100,l)
);
}
);
width = 800;
},
{
layerId = "2BAEE796-A8A2-4D91-B31E-11C9E1D2104C";
shapes = (
{
closed = 1;
nodes = (
(700,0,l),
(700,700,l),
(100,700,l),
(100,0,l)
);
},
{
closed = 1;
nodes = (
(300,500,l),
(600,500,l),
(600,200,l),
(300,200,l)
);
}
);
width = 800;
},
{
layerId = "69A8E9E3-476B-46EB-8A57-F9946389FE8B";
shapes = (
{
closed = 1;
nodes = (
(700,0,l),
(700,500,l),
(100,500,l),
(100,0,l)
);
},
{
closed = 1;
nodes = (
(300,300,l),
(600,300,l),
(600,200,l),
(300,200,l)
);
}
);
width = 800;
},
{
layerId = "A7160D91-CE36-4078-BB5A-1D71451BE1DC";
shapes = (
{
closed = 1;
nodes = (
(700,200,l),
(700,700,l),
(100,700,l),
(100,200,l)
);
},
{
closed = 1;
nodes = (
(200,600,l),
(600,600,l),
(600,300,l),
(200,300,l)
);
}
);
width = 800;
}
);
unicode = 48;
},
{
glyphname = one;
lastChange = "2022-04-24 23:07:43 +0000";
layers = (
{
layerId = m01;
shapes = (
{
closed = 1;
nodes = (
(100,600,l),
(200,600,l),
(200,0,l),
(700,0,l),
(700,700,l),
(100,700,l)
);
}
);
width = 800;
},
{
layerId = "2BAEE796-A8A2-4D91-B31E-11C9E1D2104C";
shapes = (
{
closed = 1;
nodes = (
(100,300,l),
(200,300,l),
(200,0,l),
(700,0,l),
(700,700,l),
(100,700,l)
);
}
);
width = 800;
},
{
layerId = "69A8E9E3-476B-46EB-8A57-F9946389FE8B";
shapes = (
{
closed = 1;
nodes = (
(100,200,l),
(200,200,l),
(200,0,l),
(700,0,l),
(700,300,l),
(100,300,l)
);
}
);
width = 800;
},
{
layerId = "A7160D91-CE36-4078-BB5A-1D71451BE1DC";
shapes = (
{
closed = 1;
nodes = (
(100,500,l),
(400,500,l),
(400,400,l),
(700,400,l),
(700,700,l),
(100,700,l)
);
}
);
width = 800;
}
);
unicode = 49;
},
{
glyphname = two;
lastChange = "2022-04-24 23:01:03 +0000";
layers = (
{
layerId = m01;
shapes = (
{
closed = 1;
nodes = (
(700,0,l),
(300,0,l),
(300,400,l),
(600,400,l),
(600,600,l),
(200,600,l),
(200,300,l),
(100,300,l),
(100,700,l),
(700,700,l),
(700,200,l),
(400,200,l),
(400,100,l),
(700,100,l)
);
}
);
width = 800;
},
{
layerId = "2BAEE796-A8A2-4D91-B31E-11C9E1D2104C";
shapes = (
{
closed = 1;
nodes = (
(700,0,l),
(100,0,l),
(100,300,l),
(400,300,l),
(400,600,l),
(200,600,l),
(200,500,l),
(100,500,l),
(100,700,l),
(500,700,l),
(500,200,l),
(200,200,l),
(200,100,l),
(700,100,l)
);
}
);
width = 800;
},
{
layerId = "69A8E9E3-476B-46EB-8A57-F9946389FE8B";
shapes = (
{
closed = 1;
nodes = (
(700,100,l),
(100,100,l),
(100,400,l),
(400,400,l),
(400,600,l),
(200,600,l),
(200,500,l),
(100,500,l),
(100,700,l),
(500,700,l),
(500,300,l),
(200,300,l),
(200,200,l),
(700,200,l)
);
}
);
width = 800;
},
{
layerId = "A7160D91-CE36-4078-BB5A-1D71451BE1DC";
shapes = (
{
closed = 1;
nodes = (
(700,0,l),
(300,0,l),
(300,300,l),
(600,300,l),
(600,400,l),
(200,400,l),
(200,200,l),
(100,200,l),
(100,500,l),
(700,500,l),
(700,200,l),
(400,200,l),
(400,100,l),
(700,100,l)
);
}
);
width = 800;
}
);
unicode = 50;
},
{
glyphname = three;
lastChange = "2022-04-24 23:01:03 +0000";
layers = (
{
layerId = m01;
shapes = (
{
closed = 1;
nodes = (
(100,400,l),
(500,400,l),
(500,300,l),
(400,300,l),
(400,200,l),
(500,200,l),
(500,100,l),
(100,100,l),
(100,0,l),
(700,0,l),
(700,700,l),
(100,700,l)
);
}
);
width = 800;
},
{
layerId = "2BAEE796-A8A2-4D91-B31E-11C9E1D2104C";
shapes = (
{
closed = 1;
nodes = (
(100,600,l),
(600,600,l),
(600,500,l),
(500,500,l),
(500,300,l),
(600,300,l),
(600,200,l),
(100,200,l),
(100,0,l),
(700,0,l),
(700,700,l),
(100,700,l)
);
}
);
width = 800;
},
{
layerId = "69A8E9E3-476B-46EB-8A57-F9946389FE8B";
shapes = (
{
closed = 1;
nodes = (
(300,400,l),
(500,400,l),
(500,300,l),
(400,300,l),
(400,200,l),
(500,200,l),
(500,100,l),
(100,100,l),
(100,0,l),
(700,0,l),
(700,500,l),
(300,500,l)
);
}
);
width = 800;
},
{
layerId = "A7160D91-CE36-4078-BB5A-1D71451BE1DC";
shapes = (
{
closed = 1;
nodes = (
(100,600,l),
(600,600,l),
(600,500,l),
(500,500,l),
(500,400,l),
(600,400,l),
(600,300,l),
(300,300,l),
(300,200,l),
(700,200,l),
(700,700,l),
(100,700,l)
);
}
);
width = 800;
}
);
unicode = 51;
},
{
glyphname = four;
lastChange = "2022-04-24 23:05:19 +0000";
layers = (
{
layerId = m01;
shapes = (
{
closed = 1;
nodes = (
(600,0,l),
(600,200,l),
(700,200,l),
(700,300,l),
(600,300,l),
(600,700,l),
(200,700,l),
(200,500,l),
(100,500,l),
(100,200,l),
(400,200,l),
(400,0,l)
);
},
{
closed = 1;
nodes = (
(300,600,l),
(500,600,l),
(500,300,l),
(300,300,l)
);
}
);
width = 800;
},
{
layerId = "2BAEE796-A8A2-4D91-B31E-11C9E1D2104C";
shapes = (
{
closed = 1;
nodes = (
(600,0,l),
(600,100,l),
(700,100,l),
(700,300,l),
(600,300,l),
(600,700,l),
(300,700,l),
(300,500,l),
(100,500,l),
(100,200,l),
(300,200,l),
(300,0,l)
);
},
{
closed = 1;
nodes = (
(400,600,l),
(500,600,l),
(500,300,l),
(400,300,l)
);
}
);
width = 800;
},
{
layerId = "69A8E9E3-476B-46EB-8A57-F9946389FE8B";
shapes = (
{
closed = 1;
nodes = (
(600,300,l),
(600,400,l),
(700,400,l),
(700,500,l),
(600,500,l),
(600,700,l),
(200,700,l),
(200,500,l),
(100,500,l),
(100,400,l),
(400,400,l),
(400,300,l)
);
},
{
closed = 1;
nodes = (
(300,600,l),
(500,600,l),
(500,500,l),
(300,500,l)
);
}
);
width = 800;
},
{
layerId = "A7160D91-CE36-4078-BB5A-1D71451BE1DC";
shapes = (
{
closed = 1;
nodes = (
(600,0,l),
(600,100,l),
(700,100,l),
(700,200,l),
(600,200,l),
(600,500,l),
(300,500,l),
(300,300,l),
(100,300,l),
(100,100,l),
(300,100,l),
(300,0,l)
);
},
{
closed = 1;
nodes = (
(400,400,l),
(500,400,l),
(500,200,l),
(400,200,l)
);
}
);
width = 800;
}
);
unicode = 52;
},
{
glyphname = five;
lastChange = "2022-04-24 23:07:33 +0000";
layers = (
{
layerId = m01;
shapes = (
{
closed = 1;
nodes = (
(600,500,l),
(200,500,l),
(200,600,l),
(700,600,l),
(700,700,l),
(100,700,l),
(100,400,l),
(400,400,l),
(400,200,l),
(100,200,l),
(100,0,l),
(600,0,l)
);
}
);
width = 800;
},
{
layerId = "2BAEE796-A8A2-4D91-B31E-11C9E1D2104C";
shapes = (
{
closed = 1;
nodes = (
(700,400,l),
(200,400,l),
(200,600,l),
(500,600,l),
(500,700,l),
(100,700,l),
(100,300,l),
(200,300,l),
(200,200,l),
(100,200,l),
(100,0,l),
(700,0,l)
);
}
);
width = 800;
},
{
layerId = "69A8E9E3-476B-46EB-8A57-F9946389FE8B";
shapes = (
{
closed = 1;
nodes = (
(700,500,l),
(200,500,l),
(200,600,l),
(500,600,l),
(500,700,l),
(100,700,l),
(100,400,l),
(200,400,l),
(200,300,l),
(100,300,l),
(100,200,l),
(700,200,l)
);
}
);
width = 800;
},
{
layerId = "A7160D91-CE36-4078-BB5A-1D71451BE1DC";
shapes = (
{
closed = 1;
nodes = (
(600,300,l),
(200,300,l),
(200,400,l),
(700,400,l),
(700,500,l),
(100,500,l),
(100,200,l),
(400,200,l),
(400,100,l),
(100,100,l),
(100,0,l),
(600,0,l)
);
}
);
width = 800;
}
);
unicode = 53;
},
{
glyphname = six;
lastChange = "2022-04-24 23:08:46 +0000";
layers = (
{
layerId = m01;
shapes = (
{
closed = 1;
nodes = (
(700,0,l),
(700,400,l),
(200,400,l),
(200,600,l),
(700,600,l),
(700,700,l),
(100,700,l),
(100,0,l)
);
},
{
closed = 1;
nodes = (
(300,300,l),
(400,300,l),
(400,100,l),
(300,100,l)
);
}
);
width = 800;
},
{
layerId = "2BAEE796-A8A2-4D91-B31E-11C9E1D2104C";
shapes = (
{
closed = 1;
nodes = (
(700,0,l),
(700,300,l),
(200,300,l),
(200,500,l),
(700,500,l),
(700,700,l),
(100,700,l),
(100,0,l)
);
},
{
closed = 1;
nodes = (
(200,200,l),
(600,200,l),
(600,100,l),
(200,100,l)
);
}
);
width = 800;
},
{
layerId = "69A8E9E3-476B-46EB-8A57-F9946389FE8B";
shapes = (
{
closed = 1;
nodes = (
(600,0,l),
(600,300,l),
(200,300,l),
(200,400,l),
(700,400,l),
(700,500,l),
(100,500,l),
(100,0,l)
);
},
{
closed = 1;
nodes = (
(400,200,l),
(500,200,l),
(500,100,l),
(400,100,l)
);
}
);
width = 800;
},
{
layerId = "A7160D91-CE36-4078-BB5A-1D71451BE1DC";
shapes = (
{
closed = 1;
nodes = (
(700,200,l),
(700,500,l),
(500,500,l),
(500,600,l),
(700,600,l),
(700,700,l),
(100,700,l),
(100,200,l)
);
},
{
closed = 1;
nodes = (
(500,400,l),
(600,400,l),
(600,300,l),
(500,300,l)
);
}
);
width = 800;
}
);
unicode = 54;
},
{
glyphname = seven;
lastChange = "2022-04-24 23:01:03 +0000";
layers = (
{
layerId = m01;
shapes = (
{
closed = 1;
nodes = (
(100,600,l),
(500,600,l),
(500,500,l),
(400,500,l),
(400,400,l),
(300,400,l),
(300,0,l),
(500,0,l),
(500,300,l),
(700,300,l),
(700,700,l),
(100,700,l)
);
}
);
width = 800;
},
{
layerId = "2BAEE796-A8A2-4D91-B31E-11C9E1D2104C";
shapes = (
{
closed = 1;
nodes = (
(100,600,l),
(600,600,l),
(600,500,l),
(300,500,l),
(300,400,l),
(200,400,l),
(200,0,l),
(400,0,l),
(400,400,l),
(700,400,l),
(700,700,l),
(100,700,l)
);
}
);
width = 800;
},
{
layerId = "69A8E9E3-476B-46EB-8A57-F9946389FE8B";
shapes = (
{
closed = 1;
nodes = (
(100,600,l),
(600,600,l),
(600,500,l),
(500,500,l),
(500,400,l),
(400,400,l),
(400,200,l),
(600,200,l),
(600,400,l),
(700,400,l),
(700,700,l),
(100,700,l)
);
}
);
width = 800;
},
{
layerId = "A7160D91-CE36-4078-BB5A-1D71451BE1DC";
shapes = (
{
closed = 1;
nodes = (
(100,400,l),
(600,400,l),
(600,300,l),
(300,300,l),
(300,200,l),
(200,200,l),
(200,0,l),
(400,0,l),
(400,200,l),
(700,200,l),
(700,500,l),
(100,500,l)
);
}
);
width = 800;
}
);
unicode = 55;
},
{
glyphname = eight;
lastChange = "2022-04-24 23:10:40 +0000";
layers = (
{
layerId = m01;
shapes = (
{
closed = 1;
nodes = (
(700,0,l),
(700,300,l),
(600,300,l),
(600,400,l),
(700,400,l),
(700,700,l),
(200,700,l),
(200,400,l),
(300,400,l),
(300,300,l),
(100,300,l),
(100,0,l)
);
},
{
closed = 1;
nodes = (
(200,200,l),
(600,200,l),
(600,100,l),
(200,100,l)
);
},
{
closed = 1;
nodes = (
(300,600,l),
(600,600,l),
(600,500,l),
(300,500,l)
);
}
);
width = 800;
},
{
layerId = "2BAEE796-A8A2-4D91-B31E-11C9E1D2104C";
shapes = (
{
closed = 1;
nodes = (
(700,0,l),
(700,300,l),
(600,300,l),
(600,400,l),
(700,400,l),
(700,700,l),
(100,700,l),
(100,400,l),
(200,400,l),
(200,300,l),
(100,300,l),
(100,0,l)
);
},
{
closed = 1;
nodes = (
(400,400,l),
(500,400,l),
(500,100,l),
(400,100,l)
);
},
{
closed = 1;
nodes = (
(300,600,l),
(400,600,l),
(400,500,l),
(300,500,l)
);
}
);
width = 800;
},
{
layerId = "69A8E9E3-476B-46EB-8A57-F9946389FE8B";
shapes = (
{
closed = 1;
nodes = (
(600,0,l),
(600,300,l),
(500,300,l),
(500,400,l),
(700,400,l),
(700,600,l),
(100,600,l),
(100,400,l),
(200,400,l),
(200,300,l),
(100,300,l),
(100,0,l)
);
},
{
closed = 1;
nodes = (
(200,200,l),
(400,200,l),
(400,100,l),
(200,100,l)
);
},
{
closed = 1;
nodes = (
(300,500,l),
(400,500,l),
(400,400,l),
(300,400,l)
);
}
);
width = 800;
},
{
layerId = "A7160D91-CE36-4078-BB5A-1D71451BE1DC";
shapes = (
{
closed = 1;
nodes = (
(700,200,l),
(700,400,l),
(600,400,l),
(600,500,l),
(700,500,l),
(700,700,l),
(100,700,l),
(100,500,l),
(200,500,l),
(200,400,l),
(100,400,l),
(100,200,l)
);
},
{
closed = 1;
nodes = (
(400,400,l),
(500,400,l),
(500,300,l),
(400,300,l)
);
},
{
closed = 1;
nodes = (
(300,600,l),
(400,600,l),
(400,500,l),
(300,500,l)
);
}
);
width = 800;
}
);
unicode = 56;
},
{
glyphname = nine;
lastChange = "2022-04-24 23:11:23 +0000";
layers = (
{
layerId = m01;
shapes = (
{
closed = 1;
nodes = (
(700,0,l),
(700,700,l),
(100,700,l),
(100,400,l),
(500,400,l),
(500,200,l),
(100,200,l),
(100,0,l)
);
},
{
closed = 1;
nodes = (
(200,600,l),
(400,600,l),
(400,500,l),
(200,500,l)
);
}
);
width = 800;
},
{
layerId = "2BAEE796-A8A2-4D91-B31E-11C9E1D2104C";
shapes = (
{
closed = 1;
nodes = (
(700,0,l),
(700,700,l),
(100,700,l),
(100,400,l),
(300,400,l),
(300,200,l),
(100,200,l),
(100,0,l)
);
},
{
closed = 1;
nodes = (
(400,600,l),
(600,600,l),
(600,300,l),
(400,300,l)
);
}
);
width = 800;
},
{
layerId = "69A8E9E3-476B-46EB-8A57-F9946389FE8B";
shapes = (
{
closed = 1;
nodes = (
(700,200,l),
(700,700,l),
(100,700,l),
(100,400,l),
(500,400,l),
(500,300,l),
(100,300,l),
(100,200,l)
);
},
{
closed = 1;
nodes = (
(200,600,l),
(400,600,l),
(400,500,l),
(200,500,l)
);
}
);
width = 800;
},
{
layerId = "A7160D91-CE36-4078-BB5A-1D71451BE1DC";
shapes = (
{
closed = 1;
nodes = (
(700,0,l),
(700,500,l),
(100,500,l),
(100,300,l),
(300,300,l),
(300,100,l),
(100,100,l),
(100,0,l)
);
},
{
closed = 1;
nodes = (
(400,400,l),
(600,400,l),
(600,200,l),
(400,200,l)
);
}
);
width = 800;
}
);
unicode = 57;
},
{
glyphname = period;
lastChange = "2022-04-24 23:13:31 +0000";
layers = (
{
layerId = m01;
shapes = (
{
closed = 1;
nodes = (
(300,0,l),
(500,0,l),
(500,200,l),
(300,200,l)
);
}
);
width = 800;
},
{
layerId = "2BAEE796-A8A2-4D91-B31E-11C9E1D2104C";
shapes = (
{
closed = 1;
nodes = (
(300,0,l),
(500,0,l),
(500,200,l),
(300,200,l)
);
}
);
width = 800;
},
{
layerId = "69A8E9E3-476B-46EB-8A57-F9946389FE8B";
shapes = (
{
closed = 1;
nodes = (
(300,0,l),
(500,0,l),
(500,200,l),
(300,200,l)
);
}
);
width = 800;
},
{
layerId = "A7160D91-CE36-4078-BB5A-1D71451BE1DC";
shapes = (
{
closed = 1;
nodes = (
(300,0,l),
(500,0,l),
(500,200,l),
(300,200,l)
);
}
);
width = 800;
}
);
unicode = 46;
},
{
glyphname = comma;
lastChange = "2022-04-24 23:14:05 +0000";
layers = (
{
layerId = m01;
shapes = (
{
closed = 1;
nodes = (
(300,100,l),
(400,100,l),
(400,-100,l),
(500,-100,l),
(500,200,l),
(300,200,l)
);
}
);
width = 800;
},
{
layerId = "2BAEE796-A8A2-4D91-B31E-11C9E1D2104C";
shapes = (
{
closed = 1;
nodes = (
(300,100,l),
(400,100,l),
(400,-100,l),
(500,-100,l),
(500,200,l),
(300,200,l)
);
}
);
width = 800;
},
{
layerId = "69A8E9E3-476B-46EB-8A57-F9946389FE8B";
shapes = (
{
closed = 1;
nodes = (
(300,100,l),
(400,100,l),
(400,-100,l),
(500,-100,l),
(500,200,l),
(300,200,l)
);
}
);
width = 800;
},
{
layerId = "A7160D91-CE36-4078-BB5A-1D71451BE1DC";
shapes = (
{
closed = 1;
nodes = (
(300,100,l),
(400,100,l),
(400,-100,l),
(500,-100,l),
(500,200,l),
(300,200,l)
);
}
);
width = 800;
}
);
unicode = 44;
},
{
glyphname = semicolon;
lastChange = "2022-04-24 23:15:54 +0000";
layers = (
{
layerId = m01;
shapes = (
{
closed = 1;
nodes = (
(300,100,l),
(400,100,l),
(400,-100,l),
(500,-100,l),
(500,200,l),
(300,200,l)
);
},
{
closed = 1;
nodes = (
(300,300,l),
(500,300,l),
(500,500,l),
(300,500,l)
);
}
);
width = 800;
},
{
layerId = "2BAEE796-A8A2-4D91-B31E-11C9E1D2104C";
shapes = (
{
closed = 1;
nodes = (
(300,100,l),
(400,100,l),
(400,-100,l),
(500,-100,l),
(500,200,l),
(300,200,l)
);
},
{
closed = 1;
nodes = (
(300,300,l),
(500,300,l),
(500,500,l),
(300,500,l)
);
}
);
width = 800;
},
{
layerId = "69A8E9E3-476B-46EB-8A57-F9946389FE8B";
shapes = (
{
closed = 1;
nodes = (
(300,100,l),
(400,100,l),
(400,-100,l),
(500,-100,l),
(500,200,l),
(300,200,l)
);
},
{
closed = 1;
nodes = (
(300,300,l),
(500,300,l),
(500,500,l),
(300,500,l)
);
}
);
width = 800;
},
{
layerId = "A7160D91-CE36-4078-BB5A-1D71451BE1DC";
shapes = (
{
closed = 1;
nodes = (
(300,100,l),
(400,100,l),
(400,-100,l),
(500,-100,l),
(500,200,l),
(300,200,l)
);
},
{
closed = 1;
nodes = (
(300,300,l),
(500,300,l),
(500,500,l),
(300,500,l)
);
}
);
width = 800;
}
);
unicode = 59;
},
{
glyphname = exclam;
lastChange = "2022-04-24 23:18:28 +0000";
layers = (
{
layerId = m01;
shapes = (
{
closed = 1;
nodes = (
(300,300,l),
(500,300,l),
(500,700,l),
(300,700,l)
);
},
{
closed = 1;
nodes = (
(300,0,l),
(500,0,l),
(500,200,l),
(300,200,l)
);
}
);
width = 800;
},
{
layerId = "2BAEE796-A8A2-4D91-B31E-11C9E1D2104C";
shapes = (
{
closed = 1;
nodes = (
(300,300,l),
(500,300,l),
(500,700,l),
(300,700,l)
);
},
{
closed = 1;
nodes = (
(300,0,l),
(500,0,l),
(500,200,l),
(300,200,l)
);
}
);
width = 800;
},
{
layerId = "69A8E9E3-476B-46EB-8A57-F9946389FE8B";
shapes = (
{
closed = 1;
nodes = (
(300,300,l),
(500,300,l),
(500,700,l),
(300,700,l)
);
},
{
closed = 1;
nodes = (
(300,0,l),
(500,0,l),
(500,200,l),
(300,200,l)
);
}
);
width = 800;
},
{
layerId = "A7160D91-CE36-4078-BB5A-1D71451BE1DC";
shapes = (
{
closed = 1;
nodes = (
(300,300,l),
(500,300,l),
(500,700,l),
(300,700,l)
);
},
{
closed = 1;
nodes = (
(300,0,l),
(500,0,l),
(500,200,l),
(300,200,l)
);
}
);
width = 800;
}
);
unicode = 33;
},
{
glyphname = question;
lastChange = "2022-04-24 23:18:28 +0000";
layers = (
{
layerId = m01;
shapes = (
{
closed = 1;
nodes = (
(200,400,l),
(300,400,l),
(300,500,l),
(500,500,l),
(500,300,l),
(300,300,l),
(300,200,l),
(600,200,l),
(600,700,l),
(200,700,l)
);
},
{
closed = 1;
nodes = (
(300,0,l),
(500,0,l),
(500,100,l),
(300,100,l)
);
}
);
width = 800;
},
{
layerId = "2BAEE796-A8A2-4D91-B31E-11C9E1D2104C";
shapes = (
{
closed = 1;
nodes = (
(200,400,l),
(300,400,l),
(300,500,l),
(500,500,l),
(500,300,l),
(300,300,l),
(300,200,l),
(600,200,l),
(600,700,l),
(200,700,l)
);
},
{
closed = 1;
nodes = (
(300,0,l),
(500,0,l),
(500,100,l),
(300,100,l)
);
}
);
width = 800;
},
{
layerId = "69A8E9E3-476B-46EB-8A57-F9946389FE8B";
shapes = (
{
closed = 1;
nodes = (
(200,400,l),
(300,400,l),
(300,500,l),
(500,500,l),
(500,300,l),
(300,300,l),
(300,200,l),
(600,200,l),
(600,700,l),
(200,700,l)
);
},
{
closed = 1;
nodes = (
(300,0,l),
(500,0,l),
(500,100,l),
(300,100,l)
);
}
);
width = 800;
},
{
layerId = "A7160D91-CE36-4078-BB5A-1D71451BE1DC";
shapes = (
{
closed = 1;
nodes = (
(200,400,l),
(300,400,l),
(300,500,l),
(500,500,l),
(500,300,l),
(300,300,l),
(300,200,l),
(600,200,l),
(600,700,l),
(200,700,l)
);
},
{
closed = 1;
nodes = (
(300,0,l),
(500,0,l),
(500,100,l),
(300,100,l)
);
}
);
width = 800;
}
);
unicode = 63;
},
{
glyphname = numbersign;
lastChange = "2022-04-24 23:20:20 +0000";
layers = (
{
layerId = m01;
shapes = (
{
closed = 1;
nodes = (
(300,0,l),
(300,200,l),
(500,200,l),
(500,0,l),
(600,0,l),
(600,200,l),
(700,200,l),
(700,300,l),
(600,300,l),
(600,500,l),
(700,500,l),
(700,600,l),
(600,600,l),
(600,700,l),
(500,700,l),
(500,600,l),
(300,600,l),
(300,700,l),
(200,700,l),
(200,600,l),
(100,600,l),
(100,500,l),
(200,500,l),
(200,300,l),
(100,300,l),
(100,200,l),
(200,200,l),
(200,0,l)
);
},
{
closed = 1;
nodes = (
(300,500,l),
(500,500,l),
(500,300,l),
(300,300,l)
);
}
);
width = 800;
},
{
layerId = "2BAEE796-A8A2-4D91-B31E-11C9E1D2104C";
shapes = (
{
closed = 1;
nodes = (
(300,0,l),
(300,200,l),
(500,200,l),
(500,0,l),
(600,0,l),
(600,200,l),
(700,200,l),
(700,300,l),
(600,300,l),
(600,500,l),
(700,500,l),
(700,600,l),
(600,600,l),
(600,700,l),
(500,700,l),
(500,600,l),
(300,600,l),
(300,700,l),
(200,700,l),
(200,600,l),
(100,600,l),
(100,500,l),
(200,500,l),
(200,300,l),
(100,300,l),
(100,200,l),
(200,200,l),
(200,0,l)
);
},
{
closed = 1;
nodes = (
(300,500,l),
(500,500,l),
(500,300,l),
(300,300,l)
);
}
);
width = 800;
},
{
layerId = "69A8E9E3-476B-46EB-8A57-F9946389FE8B";
shapes = (
{
closed = 1;
nodes = (
(300,0,l),
(300,200,l),
(500,200,l),
(500,0,l),
(600,0,l),
(600,200,l),
(700,200,l),
(700,300,l),
(600,300,l),
(600,500,l),
(700,500,l),
(700,600,l),
(600,600,l),
(600,700,l),
(500,700,l),
(500,600,l),
(300,600,l),
(300,700,l),
(200,700,l),
(200,600,l),
(100,600,l),
(100,500,l),
(200,500,l),
(200,300,l),
(100,300,l),
(100,200,l),
(200,200,l),
(200,0,l)
);
},
{
closed = 1;
nodes = (
(300,500,l),
(500,500,l),
(500,300,l),
(300,300,l)
);
}
);
width = 800;
},
{
layerId = "A7160D91-CE36-4078-BB5A-1D71451BE1DC";
shapes = (
{
closed = 1;
nodes = (
(300,0,l),
(300,200,l),
(500,200,l),
(500,0,l),
(600,0,l),
(600,200,l),
(700,200,l),
(700,300,l),
(600,300,l),
(600,500,l),
(700,500,l),
(700,600,l),
(600,600,l),
(600,700,l),
(500,700,l),
(500,600,l),
(300,600,l),
(300,700,l),
(200,700,l),
(200,600,l),
(100,600,l),
(100,500,l),
(200,500,l),
(200,300,l),
(100,300,l),
(100,200,l),
(200,200,l),
(200,0,l)
);
},
{
closed = 1;
nodes = (
(300,500,l),
(500,500,l),
(500,300,l),
(300,300,l)
);
}
);
width = 800;
}
);
unicode = 35;
},
{
glyphname = slash;
lastChange = "2022-04-24 23:19:01 +0000";
layers = (
{
layerId = m01;
shapes = (
{
closed = 1;
nodes = (
(500,500,l),
(300,500,l),
(300,300,l),
(200,300,l),
(200,0,l),
(300,0,l),
(300,200,l),
(400,200,l),
(400,400,l),
(600,400,l),
(600,700,l),
(500,700,l)
);
}
);
width = 800;
},
{
layerId = "2BAEE796-A8A2-4D91-B31E-11C9E1D2104C";
shapes = (
{
closed = 1;
nodes = (
(500,500,l),
(300,500,l),
(300,300,l),
(200,300,l),
(200,0,l),
(300,0,l),
(300,200,l),
(400,200,l),
(400,400,l),
(600,400,l),
(600,700,l),
(500,700,l)
);
}
);
width = 800;
},
{
layerId = "69A8E9E3-476B-46EB-8A57-F9946389FE8B";
shapes = (
{
closed = 1;
nodes = (
(500,500,l),
(300,500,l),
(300,300,l),
(200,300,l),
(200,0,l),
(300,0,l),
(300,200,l),
(400,200,l),
(400,400,l),
(600,400,l),
(600,700,l),
(500,700,l)
);
}
);
width = 800;
},
{
layerId = "A7160D91-CE36-4078-BB5A-1D71451BE1DC";
shapes = (
{
closed = 1;
nodes = (
(500,500,l),
(300,500,l),
(300,300,l),
(200,300,l),
(200,0,l),
(300,0,l),
(300,200,l),
(400,200,l),
(400,400,l),
(600,400,l),
(600,700,l),
(500,700,l)
);
}
);
width = 800;
}
);
unicode = 47;
},
{
glyphname = hyphen;
lastChange = "2022-04-24 23:14:27 +0000";
layers = (
{
layerId = m01;
shapes = (
{
closed = 1;
nodes = (
(200,300,l),
(600,300,l),
(600,400,l),
(200,400,l)
);
}
);
width = 800;
},
{
layerId = "2BAEE796-A8A2-4D91-B31E-11C9E1D2104C";
shapes = (
{
closed = 1;
nodes = (
(200,300,l),
(600,300,l),
(600,400,l),
(200,400,l)
);
}
);
width = 800;
},
{
layerId = "69A8E9E3-476B-46EB-8A57-F9946389FE8B";
shapes = (
{
closed = 1;
nodes = (
(200,300,l),
(600,300,l),
(600,400,l),
(200,400,l)
);
}
);
width = 800;
},
{
layerId = "A7160D91-CE36-4078-BB5A-1D71451BE1DC";
shapes = (
{
closed = 1;
nodes = (
(200,300,l),
(600,300,l),
(600,400,l),
(200,400,l)
);
}
);
width = 800;
}
);
unicode = 45;
},
{
glyphname = bracketleft;
lastChange = "2022-12-19 02:45:51 +0000";
layers = (
{
layerId = m01;
shapes = (
{
closed = 1;
nodes = (
(300,800,l),
(300,-100,l),
(500,-100,l),
(500,0,l),
(400,0,l),
(400,700,l),
(500,700,l),
(500,800,l)
);
}
);
width = 800;
},
{
layerId = "2BAEE796-A8A2-4D91-B31E-11C9E1D2104C";
shapes = (
{
closed = 1;
nodes = (
(300,800,l),
(300,-100,l),
(500,-100,l),
(500,0,l),
(400,0,l),
(400,700,l),
(500,700,l),
(500,800,l)
);
}
);
width = 800;
},
{
layerId = "69A8E9E3-476B-46EB-8A57-F9946389FE8B";
shapes = (
{
closed = 1;
nodes = (
(300,800,l),
(300,-100,l),
(500,-100,l),
(500,0,l),
(400,0,l),
(400,700,l),
(500,700,l),
(500,800,l)
);
}
);
width = 800;
},
{
layerId = "A7160D91-CE36-4078-BB5A-1D71451BE1DC";
shapes = (
{
closed = 1;
nodes = (
(300,800,l),
(300,-100,l),
(500,-100,l),
(500,0,l),
(400,0,l),
(400,700,l),
(500,700,l),
(500,800,l)
);
}
);
width = 800;
}
);
unicode = 91;
},
{
glyphname = bracketright;
lastChange = "2022-04-24 23:19:38 +0000";
layers = (
{
layerId = m01;
shapes = (
{
closed = 1;
nodes = (
(300,700,l),
(400,700,l),
(400,0,l),
(300,0,l),
(300,-100,l),
(500,-100,l),
(500,800,l),
(300,800,l)
);
}
);
width = 800;
},
{
layerId = "2BAEE796-A8A2-4D91-B31E-11C9E1D2104C";
shapes = (
{
closed = 1;
nodes = (
(300,700,l),
(400,700,l),
(400,0,l),
(300,0,l),
(300,-100,l),
(500,-100,l),
(500,800,l),
(300,800,l)
);
}
);
width = 800;
},
{
layerId = "69A8E9E3-476B-46EB-8A57-F9946389FE8B";
shapes = (
{
closed = 1;
nodes = (
(300,700,l),
(400,700,l),
(400,0,l),
(300,0,l),
(300,-100,l),
(500,-100,l),
(500,800,l),
(300,800,l)
);
}
);
width = 800;
},
{
layerId = "A7160D91-CE36-4078-BB5A-1D71451BE1DC";
shapes = (
{
closed = 1;
nodes = (
(300,700,l),
(400,700,l),
(400,0,l),
(300,0,l),
(300,-100,l),
(500,-100,l),
(500,800,l),
(300,800,l)
);
}
);
width = 800;
}
);
unicode = 93;
},
{
glyphname = quotedblleft;
lastChange = "2022-04-24 23:17:46 +0000";
layers = (
{
layerId = m01;
shapes = (
{
closed = 1;
nodes = (
(400,600,l),
(500,600,l),
(500,400,l),
(600,400,l),
(600,700,l),
(400,700,l)
);
},
{
closed = 1;
nodes = (
(200,500,l),
(300,500,l),
(300,400,l),
(400,400,l),
(400,600,l),
(200,600,l)
);
}
);
width = 800;
},
{
layerId = "2BAEE796-A8A2-4D91-B31E-11C9E1D2104C";
shapes = (
{
closed = 1;
nodes = (
(400,600,l),
(500,600,l),
(500,400,l),
(600,400,l),
(600,700,l),
(400,700,l)
);
},
{
closed = 1;
nodes = (
(200,500,l),
(300,500,l),
(300,400,l),
(400,400,l),
(400,600,l),
(200,600,l)
);
}
);
width = 800;
},
{
layerId = "69A8E9E3-476B-46EB-8A57-F9946389FE8B";
shapes = (
{
closed = 1;
nodes = (
(400,600,l),
(500,600,l),
(500,400,l),
(600,400,l),
(600,700,l),
(400,700,l)
);
},
{
closed = 1;
nodes = (
(200,500,l),
(300,500,l),
(300,400,l),
(400,400,l),
(400,600,l),
(200,600,l)
);
}
);
width = 800;
},
{
layerId = "A7160D91-CE36-4078-BB5A-1D71451BE1DC";
shapes = (
{
closed = 1;
nodes = (
(400,600,l),
(500,600,l),
(500,400,l),
(600,400,l),
(600,700,l),
(400,700,l)
);
},
{
closed = 1;
nodes = (
(200,500,l),
(300,500,l),
(300,400,l),
(400,400,l),
(400,600,l),
(200,600,l)
);
}
);
width = 800;
}
);
unicode = 8220;
},
{
glyphname = quotedblright;
lastChange = "2022-04-24 23:17:46 +0000";
layers = (
{
layerId = m01;
shapes = (
{
closed = 1;
nodes = (
(400,500,l),
(300,500,l),
(300,700,l),
(200,700,l),
(200,400,l),
(400,400,l)
);
},
{
closed = 1;
nodes = (
(600,600,l),
(500,600,l),
(500,700,l),
(400,700,l),
(400,500,l),
(600,500,l)
);
}
);
width = 800;
},
{
layerId = "2BAEE796-A8A2-4D91-B31E-11C9E1D2104C";
shapes = (
{
closed = 1;
nodes = (
(400,500,l),
(300,500,l),
(300,700,l),
(200,700,l),
(200,400,l),
(400,400,l)
);
},
{
closed = 1;
nodes = (
(600,600,l),
(500,600,l),
(500,700,l),
(400,700,l),
(400,500,l),
(600,500,l)
);
}
);
width = 800;
},
{
layerId = "69A8E9E3-476B-46EB-8A57-F9946389FE8B";
shapes = (
{
closed = 1;
nodes = (
(400,500,l),
(300,500,l),
(300,700,l),
(200,700,l),
(200,400,l),
(400,400,l)
);
},
{
closed = 1;
nodes = (
(600,600,l),
(500,600,l),
(500,700,l),
(400,700,l),
(400,500,l),
(600,500,l)
);
}
);
width = 800;
},
{
layerId = "A7160D91-CE36-4078-BB5A-1D71451BE1DC";
shapes = (
{
closed = 1;
nodes = (
(400,500,l),
(300,500,l),
(300,700,l),
(200,700,l),
(200,400,l),
(400,400,l)
);
},
{
closed = 1;
nodes = (
(600,600,l),
(500,600,l),
(500,700,l),
(400,700,l),
(400,500,l),
(600,500,l)
);
}
);
width = 800;
}
);
unicode = 8221;
},
{
glyphname = quoteleft;
lastChange = "2022-04-24 23:17:46 +0000";
layers = (
{
layerId = m01;
shapes = (
{
closed = 1;
nodes = (
(500,500,l),
(400,500,l),
(400,700,l),
(300,700,l),
(300,400,l),
(500,400,l)
);
}
);
width = 800;
},
{
layerId = "2BAEE796-A8A2-4D91-B31E-11C9E1D2104C";
shapes = (
{
closed = 1;
nodes = (
(500,500,l),
(400,500,l),
(400,700,l),
(300,700,l),
(300,400,l),
(500,400,l)
);
}
);
width = 800;
},
{
layerId = "69A8E9E3-476B-46EB-8A57-F9946389FE8B";
shapes = (
{
closed = 1;
nodes = (
(500,500,l),
(400,500,l),
(400,700,l),
(300,700,l),
(300,400,l),
(500,400,l)
);
}
);
width = 800;
},
{
layerId = "A7160D91-CE36-4078-BB5A-1D71451BE1DC";
shapes = (
{
closed = 1;
nodes = (
(500,500,l),
(400,500,l),
(400,700,l),
(300,700,l),
(300,400,l),
(500,400,l)
);
}
);
width = 800;
}
);
unicode = 8216;
},
{
glyphname = quoteright;
lastChange = "2022-04-24 23:17:46 +0000";
layers = (
{
layerId = m01;
shapes = (
{
closed = 1;
nodes = (
(300,600,l),
(400,600,l),
(400,400,l),
(500,400,l),
(500,700,l),
(300,700,l)
);
}
);
width = 800;
},
{
layerId = "2BAEE796-A8A2-4D91-B31E-11C9E1D2104C";
shapes = (
{
closed = 1;
nodes = (
(300,600,l),
(400,600,l),
(400,400,l),
(500,400,l),
(500,700,l),
(300,700,l)
);
}
);
width = 800;
},
{
layerId = "69A8E9E3-476B-46EB-8A57-F9946389FE8B";
shapes = (
{
closed = 1;
nodes = (
(300,600,l),
(400,600,l),
(400,400,l),
(500,400,l),
(500,700,l),
(300,700,l)
);
}
);
width = 800;
},
{
layerId = "A7160D91-CE36-4078-BB5A-1D71451BE1DC";
shapes = (
{
closed = 1;
nodes = (
(300,600,l),
(400,600,l),
(400,400,l),
(500,400,l),
(500,700,l),
(300,700,l)
);
}
);
width = 800;
}
);
unicode = 8217;
},
{
glyphname = quotedbl;
lastChange = "2022-04-24 23:17:46 +0000";
layers = (
{
layerId = m01;
shapes = (
{
closed = 1;
nodes = (
(200,400,l),
(300,400,l),
(300,700,l),
(200,700,l)
);
},
{
closed = 1;
nodes = (
(500,400,l),
(600,400,l),
(600,700,l),
(500,700,l)
);
}
);
width = 800;
},
{
layerId = "2BAEE796-A8A2-4D91-B31E-11C9E1D2104C";
shapes = (
{
closed = 1;
nodes = (
(200,400,l),
(300,400,l),
(300,700,l),
(200,700,l)
);
},
{
closed = 1;
nodes = (
(500,400,l),
(600,400,l),
(600,700,l),
(500,700,l)
);
}
);
width = 800;
},
{
layerId = "69A8E9E3-476B-46EB-8A57-F9946389FE8B";
shapes = (
{
closed = 1;
nodes = (
(200,400,l),
(300,400,l),
(300,700,l),
(200,700,l)
);
},
{
closed = 1;
nodes = (
(500,400,l),
(600,400,l),
(600,700,l),
(500,700,l)
);
}
);
width = 800;
},
{
layerId = "A7160D91-CE36-4078-BB5A-1D71451BE1DC";
shapes = (
{
closed = 1;
nodes = (
(200,400,l),
(300,400,l),
(300,700,l),
(200,700,l)
);
},
{
closed = 1;
nodes = (
(500,400,l),
(600,400,l),
(600,700,l),
(500,700,l)
);
}
);
width = 800;
}
);
unicode = 34;
},
{
glyphname = quotesingle;
lastChange = "2022-04-24 23:17:02 +0000";
layers = (
{
layerId = m01;
shapes = (
{
closed = 1;
nodes = (
(300,400,l),
(500,400,l),
(500,700,l),
(300,700,l)
);
}
